# xmcd
#
# Track frame offsets: 
#        150
#        10522
#        22850
#        35867
#        48522
#        59562
#        71325
#        82370
#        94122
#        106292
#        116002
#        125130
#        135050
#        145462
#        158020
#        171902
#        181472
#        195662
#        209625
#        221195
#        234640
#        246725
#
# Disc length: 3476 seconds
#
# Revision: 6
# Processed by: cddbd v1.5.2PL0 Copyright (c) Steve Scherf et al.
# Submitted via: ExactAudioCopy v0.95b4
#
DISCID=4f0d9216
DTITLE=George Jones - The Essential George Jones: The Spirit Of Countr
DTITLE=y [CD1]
DYEAR=1998
DGENRE=Country
TTITLE0=Why, Baby, Why
TTITLE1=Just One More
TTITLE2=Color Of The Blues
TTITLE3=White Lightning
TTITLE4=Who Shot Sam
TTITLE5=The Window Up Above
TTITLE6=Tender Years
TTITLE7=She Thinks I Still Care
TTITLE8=We Must Have Been Out Of Our Minds (with Melba Montgomery)
TTITLE9=The Race Is On
TTITLE10=Love Bug
TTITLE11=I'm A People
TTITLE12=Walk Through This World With Me
TTITLE13=If My Heart Had Windows
TTITLE14=A Good Year For The Roses
TTITLE15=We Can Make It
TTITLE16=The Ceremony (with Tammy Wynette)
TTITLE17=Loving You Could Never Be Better
TTITLE18=A Picture Of Me (Without You)
TTITLE19=We're Gonna Hold On (with Tammy Wynette)
TTITLE20=Once You've Had The Best
TTITLE21=The Grand Tour
EXTD=
EXTT0=
EXTT1=
EXTT2=
EXTT3=
EXTT4=
EXTT5=
EXTT6=
EXTT7=
EXTT8=
EXTT9=
EXTT10=
EXTT11=
EXTT12=
EXTT13=
EXTT14=
EXTT15=
EXTT16=
EXTT17=
EXTT18=
EXTT19=
EXTT20=
EXTT21=
PLAYORDER=
